# xmcd
#
# Track frame offsets:
#	150
#	22260
#	43984
#	61967
#	89496
#	105954
#	132286
#	161067
#	176562
#	190658
#
# Disc length: 2833 seconds
#
# Revision: 0
# Processed by: cddbd v1.5.1PL0 Copyright (c) Steve Scherf et al.
# Submitted via: dBpowerAMP V4.0
#
DISCID=860b0f0a
DTITLE=Pee Wee Bluesgang - Bootlegged in Hamburg
DYEAR=1900
DGENRE=Blues
TTITLE0=I´ve been lonley
TTITLE1=The way I feel
TTITLE2=Jesus just left Chicago
TTITLE3=You don´t love me
TTITLE4=24 hours
TTITLE5=Take it easy
TTITLE6=Doubt
TTITLE7=Time to go
TTITLE8=Ride on with the king
TTITLE9=Harley Davidson
EXTD=
EXTT0=
EXTT1=
EXTT2=
EXTT3=
EXTT4=
EXTT5=
EXTT6=
EXTT7=
EXTT8=
EXTT9=
PLAYORDER=
